# xmcd
#
# Track frame offsets:
#	150
#	22904
#	44476
#	63439
#	85401
#	102436
#	123379
#	144747
#	165589
#	186407
#	204503
#
# Disc length: 3029 seconds
#
# Revision: 1
# Processed by: cddbd v1.5.2PL0 Copyright (c) Steve Scherf et al.
# Submitted via: EZCDAudioConverter 8.0.2.1
#
DISCID=9c0bd30b
DTITLE=Various Artist - Top Hits 21. Yêu Mãi Ngàn Năm
DYEAR=2004
DGENRE=Contemporary Pop
TTITLE0=Bảo Hân, Hồ Lệ Thu - Con tim khát khao (It's Raining Men)
TTITLE1=Lương Tùng Quang, Bảo Hân - Nắng về theo anh
TTITLE2=Minh Tuyết, Lâm Nhật Tiến - Yêu Mãi Ngàn Năm
TTITLE3=Bằng Kiều, Vân Quỳnh - Dẫu có lỗi lầm
TTITLE4=Tommy Ngô, Henry Chuc - Don't Be Cruel, Hound Dog
TTITLE5=Loan Châu, Don Hồ - Dù có như thế nào
TTITLE6=Nhật Trung, La Sương Sương - Trí tim buốt giá
TTITLE7=Minh Tuyết - Vấn vương
TTITLE8=Ninh Cát Loan Châu - Cơn mưa cuối
TTITLE9=Phi Nhung, Thế Sơn - Vợ thằng Đậu
TTITLE10=Soundtrack - Con tim khát khao (Remix)
EXTD=
EXTT0=
EXTT1=
EXTT2=
EXTT3=
EXTT4=
EXTT5=
EXTT6=
EXTT7=
EXTT8=
EXTT9=
EXTT10=
PLAYORDER=
